<svg width="20" height="17" viewBox="0 0 20 17" fill="none" xmlns="http://www.w3.org/2000/svg">
<path d="M15 4C15.3278 4 15.5319 4.11423 15.6777 4.26855C15.8395 4.43973 16 4.74493 16 5.19434C16 5.82577 15.4733 7.15934 13.835 9.04297C12.6323 10.4257 11.1902 11.6932 10 12.6396C8.80976 11.6932 7.36773 10.4257 6.16504 9.04297C4.52672 7.15933 4 5.82576 4 5.19434C4.00002 4.74491 4.16054 4.43972 4.32227 4.26855C4.46812 4.11425 4.67218 4 5 4C5.25524 4 5.42105 4.0323 5.63672 4.13184C5.90179 4.25424 6.39851 4.55476 7.17188 5.32812C8.73397 6.89022 11.266 6.89022 12.8281 5.32812C13.6015 4.55476 14.0982 4.25424 14.3633 4.13184C14.579 4.0323 14.7448 4 15 4Z" stroke="#BE151A" stroke-width="8" stroke-linecap="round" stroke-linejoin="round"/>
</svg>
