<svg width="20" height="20" viewBox="0 0 20 20" fill="none" xmlns="http://www.w3.org/2000/svg">
<path d="M2.91647 15.8214V17.0837H4.17874C5.20062 17.0837 5.71156 17.0837 6.17098 16.8933C6.63041 16.7031 6.9917 16.3417 7.71427 15.6192L15.9342 7.39923C16.6697 6.66376 17.0374 6.29602 17.0781 5.8447C17.0848 5.77009 17.0848 5.69503 17.0781 5.62042C17.0374 5.1691 16.6697 4.80136 15.9342 4.06589C15.1987 3.33043 14.831 2.96269 14.3797 2.92204C14.3051 2.91531 14.2301 2.91531 14.1554 2.92204C13.7041 2.96269 13.3364 3.33043 12.6009 4.06589L4.38094 12.2858C3.65837 13.0084 3.29708 13.3697 3.10677 13.8292C2.91647 14.2886 2.91647 14.7995 2.91647 15.8214Z" stroke="#818898" stroke-width="1.5" stroke-linecap="round" stroke-linejoin="round"/>
<path d="M11.25 5.41699L14.5833 8.75033" stroke="#818898" stroke-width="1.5" stroke-linecap="round" stroke-linejoin="round"/>
</svg>
