<svg width="10" height="10" viewBox="0 0 10 10" fill="none" xmlns="http://www.w3.org/2000/svg">
<path d="M4.99609 4.33496C5.18059 4.54306 5.37366 4.71172 5.5498 4.84277C5.68607 4.94414 5.84665 5.04692 6.02734 5.14258C5.87084 5.42008 5.76457 5.69552 5.69531 5.93945C5.66742 6.0377 5.6424 6.14295 5.62109 6.25391C5.40054 6.21602 5.19066 6.20118 5.00098 6.20117C4.80869 6.20117 4.59721 6.21668 4.37598 6.25488C4.35464 6.14364 4.33069 6.03792 4.30273 5.93945C4.23335 5.69507 4.1257 5.41959 3.96875 5.1416C4.15106 5.04471 4.31232 4.94048 4.44824 4.83887C4.6219 4.70902 4.81292 4.54161 4.99609 4.33496Z" stroke="#FEBC2F" stroke-width="5" stroke-linecap="round" stroke-linejoin="round"/>
</svg>
