<svg width="16" height="16" viewBox="0 0 16 16" fill="none" xmlns="http://www.w3.org/2000/svg">
<path d="M7.33334 5.33301H8.66667" stroke="#BE151A" stroke-linecap="round"/>
<path d="M1.33333 7.33366C1.33333 5.13377 1.33333 4.03383 2.01675 3.35041C2.70017 2.66699 3.80011 2.66699 6 2.66699H6.66667C8.86653 2.66699 9.96647 2.66699 10.6499 3.35041C11.3333 4.03383 11.3333 5.13377 11.3333 7.33366V8.66699C11.3333 10.8669 11.3333 11.9668 10.6499 12.6503C9.96647 13.3337 8.86653 13.3337 6.66667 13.3337H6C3.80011 13.3337 2.70017 13.3337 2.01675 12.6503C1.33333 11.9668 1.33333 10.8669 1.33333 8.66699V7.33366Z" stroke="#BE151A"/>
<path d="M11.3333 5.93691L11.4173 5.86765C12.8278 4.70383 13.5331 4.12192 14.0999 4.40289C14.6667 4.68386 14.6667 5.61538 14.6667 7.47841V8.52094C14.6667 10.384 14.6667 11.3155 14.0999 11.5965C13.5331 11.8774 12.8278 11.2955 11.4173 10.1317L11.3333 10.0624" stroke="#BE151A" stroke-linecap="round"/>
</svg>
