<svg width="30" height="30" viewBox="0 0 30 30" fill="none" xmlns="http://www.w3.org/2000/svg">
<path d="M26.9391 18.0938C26.6904 18.0938 26.452 18.1925 26.2762 18.3683C26.1003 18.5442 26.0016 18.7826 26.0016 19.0312V22.2328C26.0016 22.9874 25.7018 23.7112 25.1682 24.2448C24.6346 24.7784 23.9109 25.0781 23.1563 25.0781H6.84376C6.08913 25.0781 5.36542 24.7784 4.83182 24.2448C4.29822 23.7112 3.99844 22.9874 3.99844 22.2328V19.0312C3.99844 18.7826 3.89967 18.5442 3.72386 18.3683C3.54804 18.1925 3.30958 18.0938 3.06094 18.0938C2.8123 18.0938 2.57385 18.1925 2.39803 18.3683C2.22222 18.5442 2.12344 18.7826 2.12344 19.0312V22.2328C2.12468 23.4843 2.6224 24.6842 3.50736 25.5692C4.39232 26.4542 5.59223 26.9519 6.84376 26.9531H23.1563C24.4078 26.9519 25.6077 26.4542 26.4927 25.5692C27.3776 24.6842 27.8753 23.4843 27.8766 22.2328V19.0312C27.8766 18.7826 27.7778 18.5442 27.602 18.3683C27.4262 18.1925 27.1877 18.0938 26.9391 18.0938Z" fill="#F9F2FF"/>
<path d="M10.3125 9.98451L14.0625 6.23451V20.1564C14.0625 20.405 14.1613 20.6435 14.3371 20.8193C14.5129 20.9951 14.7514 21.0939 15 21.0939C15.2487 21.0939 15.4871 20.9951 15.6629 20.8193C15.8387 20.6435 15.9375 20.405 15.9375 20.1564V6.24857L19.6875 9.99857C19.7746 10.0857 19.878 10.1548 19.9918 10.2019C20.1056 10.2491 20.2276 10.2733 20.3508 10.2733C20.474 10.2733 20.596 10.2491 20.7098 10.2019C20.8236 10.1548 20.927 10.0857 21.0141 9.99857C21.1012 9.91147 21.1703 9.80806 21.2174 9.69426C21.2646 9.58045 21.2888 9.45848 21.2888 9.33529C21.2888 9.21211 21.2646 9.09013 21.2174 8.97633C21.1703 8.86252 21.1012 8.75911 21.0141 8.67201L15.6656 3.32357C15.5353 3.19716 15.3734 3.10812 15.1969 3.06576C15.0452 3.03783 14.8889 3.04666 14.7413 3.09152C14.5937 3.13637 14.459 3.21595 14.3484 3.32357L9.00001 8.65795C8.85117 8.83704 8.77432 9.06512 8.7844 9.29777C8.79449 9.53042 8.89081 9.75099 9.05459 9.91652C9.21837 10.0821 9.4379 10.1807 9.67043 10.1933C9.90296 10.2059 10.1318 10.1314 10.3125 9.98451Z" fill="#F9F2FF"/>
</svg>
