<svg width="16" height="16" viewBox="0 0 16 16" fill="none" xmlns="http://www.w3.org/2000/svg">
<path d="M14.3627 7.36301C14.5653 7.64721 14.6667 7.78934 14.6667 7.99967C14.6667 8.21001 14.5653 8.35214 14.3627 8.63634C13.4519 9.91341 11.1261 12.6663 7.99999 12.6663C4.87385 12.6663 2.54806 9.91341 1.63735 8.63634C1.43467 8.35214 1.33333 8.21001 1.33333 7.99967C1.33333 7.78934 1.43467 7.64721 1.63735 7.36301C2.54806 6.08597 4.87385 3.33301 7.99999 3.33301C11.1261 3.33301 13.4519 6.08597 14.3627 7.36301Z" stroke="white"/>
<path d="M10 8C10 6.8954 9.1046 6 8 6C6.8954 6 6 6.8954 6 8C6 9.1046 6.8954 10 8 10C9.1046 10 10 9.1046 10 8Z" stroke="white"/>
</svg>
